Coordinates
version=1
nRows=13
nColumns=30
inDegrees=yes

Units are S.I. units (second, meters, Newtons, ...)
Angles are in degrees.

endheader
time	floatyaw	floatroll	floatpitch	floatx	floaty	floatz	pro_sup_l	deviation_l	flexion_l	cmc_flexion_l	cmc_abduction_l	mp_flexion_l	ip_flexion_l	2mcp_flexion_l	2mcp_abduction_l	2pm_flexion_l	2md_flexion_l	3mcp_flexion_l	3mcp_abduction_l	3pm_flexion_l	3md_flexion_l	4mcp_flexion_l	4mcp_abduction_l	4pm_flexion_l	4md_flexion_l	5mcp_flexion_l	5mcp_abduction_l	5pm_flexion_l	5md_flexion_l
-0.495000	-1.089067	-4.156866	93.821839	-0.004953	-0.260521	0.004377	88.444711	0.835456	-0.538588	21.072356	6.271795	-16.424674	-24.011482	23.316004	6.454082	28.491816	20.294299	11.645913	5.071451	32.624565	22.567227	0.243103	-4.136190	50.327993	32.606160	-16.159377	-9.368349	56.995661	45.838855
-0.485000	-1.089067	-4.156866	93.821839	-0.003285	-0.259045	0.006555	88.047930	0.904547	-0.102675	20.485094	7.080459	-16.215035	-23.350972	24.426257	6.633717	27.877379	20.033702	12.434195	5.174536	32.233586	22.675021	0.837123	-4.206004	50.162027	32.478643	-14.050759	-9.483647	55.180361	44.553196
-0.475000	-1.089067	-4.156866	93.821839	-0.001212	-0.257352	0.008922	87.579190	1.135085	0.395038	19.722272	7.936804	-16.032032	-22.663217	25.626006	6.796333	27.241659	19.766528	13.319096	5.254777	31.864565	22.802044	1.707043	-4.263506	49.837902	32.286306	-11.708678	-9.504041	53.372452	43.180104
-0.465000	-1.089067	-4.156866	93.821839	0.001268	-0.255468	0.011499	87.050409	1.550497	0.940331	18.740262	8.817186	-15.877044	-21.938297	26.880994	6.924974	26.581385	19.491091	14.306192	5.310463	31.485644	22.912726	2.880160	-4.282907	49.294054	32.025669	-9.293273	-9.454619	51.686133	41.769760
-0.455000	-1.089067	-4.156866	93.821839	0.004123	-0.253423	0.014352	86.483742	2.142040	1.512085	17.525880	9.689058	-15.741165	-21.164342	28.194547	7.014353	25.867214	19.174827	15.410303	5.343731	31.038430	22.962948	4.312970	-4.245045	48.512339	31.723630	-6.942153	-9.363024	50.134003	40.371078
-0.445000	-1.089067	-4.156866	93.821839	0.007302	-0.251263	0.017548	85.910251	2.876881	2.084084	16.106857	10.514874	-15.614352	-20.344289	29.589682	7.071642	25.070868	18.776460	16.639963	5.360713	30.468022	22.922200	5.891025	-4.146593	47.534952	31.436881	-4.743666	-9.247479	48.662042	39.037331
-0.435000	-1.089067	-4.156866	93.821839	0.010748	-0.249040	0.021119	85.366709	3.714456	2.629889	14.548885	11.263565	-15.491767	-19.504494	31.080133	7.114065	24.192384	18.273169	17.988418	5.371565	29.750857	22.788013	7.465287	-4.002439	46.453051	31.235489	-2.736252	-9.115355	47.210927	37.825745
-0.425000	-1.089067	-4.156866	93.821839	0.014429	-0.246810	0.025047	84.892095	4.623586	3.129944	12.938260	11.922080	-15.373182	-18.687898	32.650080	7.164247	23.270293	17.674969	19.435103	5.388632	28.906789	22.585019	8.910009	-3.839681	45.371205	31.177983	-0.927993	-8.969551	45.768010	36.788981
-0.415000	-1.089067	-4.156866	93.821839	0.018343	-0.244618	0.029285	84.523613	5.591953	3.577684	11.355944	12.499369	-15.258536	-17.936438	34.253005	7.243553	22.371017	17.020013	20.953620	5.422472	27.991181	22.350781	10.169944	-3.686310	44.368490	31.290326	0.679037	-8.815573	44.385045	35.961751
-0.405000	-1.089067	-4.156866	93.821839	0.022518	-0.242497	0.033784	84.290746	6.623002	3.981576	9.854267	13.021121	-15.145699	-17.274606	35.825947	7.364539	21.566442	16.358295	22.517983	5.477869	27.073983	22.118939	11.269505	-3.560590	43.478409	31.558233	2.074933	-8.664596	43.156239	35.349537
-0.395000	-1.089067	-4.156866	93.821839	0.026992	-0.240471	0.038512	84.207625	7.722554	4.362577	8.447691	13.519210	-15.033128	-16.704032	37.308013	7.525740	20.912277	15.736052	24.101929	5.552594	26.218397	21.910272	12.281472	-3.466547	42.695165	31.934350	3.244363	-8.532059	42.172941	34.927392
-0.385000	-1.089067	-4.156866	93.821839	0.031790	-0.238566	0.043451	84.267780	8.884014	4.748825	7.121749	14.021418	-14.924557	-16.210550	38.653938	7.712539	20.435739	15.187772	25.674002	5.639683	25.468647	21.734067	13.278288	-3.397115	41.996211	32.355129	4.178556	-8.433470	41.483703	34.652392
-0.375000	-1.089067	-4.156866	93.821839	0.036906	-0.236814	0.048578	84.446227	10.081716	5.169608	5.853470	14.545690	-14.830480	-15.777043	39.839513	7.904981	20.134497	14.734862	27.195609	5.731497	24.848193	21.594145	14.295853	-3.341831	41.363744	32.760172	4.885219	-8.379515	41.081205	34.483975
